_________________________  Visit us at _________________________
  
http://p2pdl.com  ____________________________  http://p2pdl.com


A Little Bit Zombie 2012 BRRip 720p x264 AAC - PRiSTiNE


Genre: Comedy | Horror
Plot: Infected by a virus, a mild mannered HR manager attempts to fulfill his overwhelming desire for
brains, all while trying to keep it together so as not to incur the wrath of his bridezilla-to-be.
Director: Casey Walker
Stars: Kristopher Turner, Crystal Lowe, Shawn Roberts.
Rated: R for some bloody violence, language throughout and brief nudity.


Info: 
http://www.imdb.com/title/tt1912982/

Trailer:


Format                         : MPEG-4
File size                      : 551 MiB
Duration                       : 1h 27mn
Overall bit rate               : 879 Kbps
Video Format                   : AVC
Video Bit rate                 : 797 Kbps
Width                          : 1 280 pixels
Height                         : 720 pixels
Display aspect ratio           : 16:9
Frame rate mode                : Constant
Frame rate                     : 23.976 fps
Stream size                    : 499 MiB (91%)
Writing library                : x264 core 129 r2245
Audio Format                   : AAC
Audio Bit rate                 : 80.0 Kbps
Channel(s)                     : 2 channels
Channel positions              : Front: L R
Sampling rate                  : 48.0 KHz
Stream size                    : 50.1 MiB (9%)
Language                       : English
Subtitle                       : Yes(English)
Source                         : 720p.BluRay.x264-MELiTE(Thanks)

Screenshots:
 
http://cdn.piczend.com/images/hL4qYXJu/1363512506_tinybayalittlebitzombie.jpg


----------------------------------------------------------------------------------------------------


Encoded using revolutionary 10bit encoding, which enables us to provide you more crispier 
and sharper images at small sizes, just make sure you follow our instructions without a fault.
Recommend to you to use latest version of VLC player. Install K-Lite Codec Pack or shark007 codecs
in case of any kind of problem in playback (For non-VLC Media Player users). Alternatively, install
Core AVC codecs, the fastest decoder that there is coupled with Community Center Codec Pack and play
on Windows Media Player Classic.

Encoder Notes: Encoder Notes: Looking For Early Access To Anything You Can Provide DVDScr, R5, DVDR, BluRay, Direct
Audio, Music Releases and Seedboxes. We require dedicated servers, so as to do more and fast releases of movies.
If You Got anything to offer contact us at "prg@hush.com".